<svg id="visual" viewBox="0 0 1920 1080" width="1920" height="1080" xmlns="http://www.w3.org/2000/svg" xmlns:xlink="http://www.w3.org/1999/xlink" version="1.1"><path d="M0 141L40 148.3C80 155.7 160 170.3 240 159.7C320 149 400 113 480 109.3C560 105.7 640 134.3 720 145C800 155.7 880 148.3 960 148.3C1040 148.3 1120 155.7 1200 163C1280 170.3 1360 177.7 1440 163.3C1520 149 1600 113 1680 98.5C1760 84 1840 91 1880 94.5L1920 98L1920 0L1880 0C1840 0 1760 0 1680 0C1600 0 1520 0 1440 0C1360 0 1280 0 1200 0C1120 0 1040 0 960 0C880 0 800 0 720 0C640 0 560 0 480 0C400 0 320 0 240 0C160 0 80 0 40 0L0 0Z" fill="#fc7879"></path><path d="M0 336L40 345C80 354 160 372 240 363C320 354 400 318 480 310.8C560 303.7 640 325.3 720 316.3C800 307.3 880 267.7 960 271.2C1040 274.7 1120 321.3 1200 337.5C1280 353.7 1360 339.3 1440 303.3C1520 267.3 1600 209.7 1680 200.7C1760 191.7 1840 231.3 1880 251.2L1920 271L1920 96L1880 92.5C1840 89 1760 82 1680 96.5C1600 111 1520 147 1440 161.3C1360 175.7 1280 168.3 1200 161C1120 153.7 1040 146.3 960 146.3C880 146.3 800 153.7 720 143C640 132.3 560 103.7 480 107.3C400 111 320 147 240 157.7C160 168.3 80 153.7 40 146.3L0 139Z" fill="#f45759"></path><path d="M0 519L40 520.8C80 522.7 160 526.3 240 510.2C320 494 400 458 480 459.8C560 461.7 640 501.3 720 512.2C800 523 880 505 960 497.8C1040 490.7 1120 494.3 1200 483.5C1280 472.7 1360 447.3 1440 411.3C1520 375.3 1600 328.7 1680 325.2C1760 321.7 1840 361.3 1880 381.2L1920 401L1920 269L1880 249.2C1840 229.3 1760 189.7 1680 198.7C1600 207.7 1520 265.3 1440 301.3C1360 337.3 1280 351.7 1200 335.5C1120 319.3 1040 272.7 960 269.2C880 265.7 800 305.3 720 314.3C640 323.3 560 301.7 480 308.8C400 316 320 352 240 361C160 370 80 352 40 343L0 334Z" fill="#ea2e38"></path><path d="M0 865L40 854.2C80 843.3 160 821.7 240 794.7C320 767.7 400 735.3 480 733.5C560 731.7 640 760.3 720 764C800 767.7 880 746.3 960 744.7C1040 743 1120 761 1200 780.7C1280 800.3 1360 821.7 1440 812.7C1520 803.7 1600 764.3 1680 753.7C1760 743 1840 761 1880 770L1920 779L1920 399L1880 379.2C1840 359.3 1760 319.7 1680 323.2C1600 326.7 1520 373.3 1440 409.3C1360 445.3 1280 470.7 1200 481.5C1120 492.3 1040 488.7 960 495.8C880 503 800 521 720 510.2C640 499.3 560 459.7 480 457.8C400 456 320 492 240 508.2C160 524.3 80 520.7 40 518.8L0 517Z" fill="#cc2631"></path><path d="M0 1081L40 1081C80 1081 160 1081 240 1081C320 1081 400 1081 480 1081C560 1081 640 1081 720 1081C800 1081 880 1081 960 1081C1040 1081 1120 1081 1200 1081C1280 1081 1360 1081 1440 1081C1520 1081 1600 1081 1680 1081C1760 1081 1840 1081 1880 1081L1920 1081L1920 777L1880 768C1840 759 1760 741 1680 751.7C1600 762.3 1520 801.7 1440 810.7C1360 819.7 1280 798.3 1200 778.7C1120 759 1040 741 960 742.7C880 744.3 800 765.7 720 762C640 758.3 560 729.7 480 731.5C400 733.3 320 765.7 240 792.7C160 819.7 80 841.3 40 852.2L0 863Z" fill="#ae1e2a"></path></svg>